<svg id="Layer_1" data-name="Layer 1" xmlns="http://www.w3.org/2000/svg" viewBox="0 0 28 28"><defs><style>.cls-1{fill:#fff;}</style></defs><path class="cls-1" d="M28,8.72a10.58,10.58,0,0,0-1.57,2.64A6.8,6.8,0,0,1,28,15.7a7,7,0,0,1-12.56,4.17l-1.35,2.81L12.6,19.85A7,7,0,0,1,0,15.7a6.75,6.75,0,0,1,1.57-4.34A10.8,10.8,0,0,0,0,8.72H5a13.75,13.75,0,0,1,18.1,0ZM7,20.93A5.23,5.23,0,1,0,1.77,15.7,5.25,5.25,0,0,0,7,20.93Zm14,0a5.23,5.23,0,1,0-5.24-5.23A5.25,5.25,0,0,0,21,20.93ZM7,11.63a3.95,3.95,0,0,1,0,7.89,3.95,3.95,0,0,1,0-7.89Zm0,5.92a2,2,0,1,0-1.94-2A2,2,0,0,0,7,17.55Zm14-5.92a3.95,3.95,0,1,1-3.88,3.95A3.92,3.92,0,0,1,21,11.63Zm0,5.92a2,2,0,1,0-1.86-2A2,2,0,0,0,21,17.55ZM7,16.37a.8.8,0,0,1-.78-.79h0a.78.78,0,1,1,1.56,0A.8.8,0,0,1,7,16.37Zm14,0a.8.8,0,0,1-.78-.79h0a.78.78,0,1,1,1.56,0A.8.8,0,0,1,21,16.37Z"/></svg>